# xmcd
#
# Track frame offsets: 
#        150
#        33626
#        68205
#        123194
#        147467
#        178868
#        232008
#
# Disc length: 3655 seconds
#
# Revision: 0
# Processed by: cddbd v1.5.2PL0 Copyright (c) Steve Scherf et al.
# Submitted via: ExactAudioCopy v0.99pb5
#
DISCID=670e4507
DTITLE=Mokira - Time Axis Manipulation
DYEAR=2011
DGENRE=Techno
TTITLE0=Manipulation Musik
TTITLE1=LFU Skank
TTITLE2=Time Track
TTITLE3=Rainford
TTITLE4=Kendal
TTITLE5=Axis Audio
TTITLE6=Axis Audio (cv313 Remodel)
EXTD=
EXTT0=
EXTT1=
EXTT2=
EXTT3=
EXTT4=
EXTT5=
EXTT6=
PLAYORDER=
